<svg role="img" xmlns="http://www.w3.org/2000/svg" viewBox="0 0 24 24"><title>Settings icon</title><path d="M20.2499 12.5699v-1.1475l1.44-1.26a1.49925 1.49925 0 00.4918-.90416 1.4997 1.4997 0 00-.2068-1.0083l-1.77-3a1.49985 1.49985 0 00-1.2975-.75 1.5001 1.5001 0 00-.48.075l-1.8225.615a8.5003 8.5003 0 00-.9825-.5625l-.3825-1.89a1.4996 1.4996 0 00-.5306-.87622 1.5 1.5 0 00-.9694-.33128h-3.51a1.49998 1.49998 0 00-1.49995 1.2075l-.3825 1.89a8.60931 8.60931 0 00-.99.5625l-1.785-.645a1.50003 1.50003 0 00-.48-.045 1.49997 1.49997 0 00-1.2975.75l-1.77 3a1.49998 1.49998 0 00-.18402.99642 1.49981 1.49981 0 00.49152.88604l1.4175 1.2975v1.1475l-1.4175 1.26a1.50018 1.50018 0 00-.50386.9 1.49992 1.49992 0 00.19636 1.0125l1.77 3a1.4998 1.4998 0 001.2975.75c.16301.0013.32513-.024.48-.075l1.8225-.615c.31465.2091.64288.397.9825.5625l.3825 1.89c.06858.3453.25643.6555.53065.8763a1.4999 1.4999 0 00.9693.3312h3.54c.352.0068.6952-.1105.9694-.3312.2742-.2208.4621-.531.5306-.8763l.3825-1.89c.3421-.1654.6728-.3533.99-.5625l1.815.615c.1549.051.317.0763.48.075.2631-.0002.5214-.0697.7492-.2013.2277-.1316.4168-.3209.5483-.5487l1.71-3a1.49972 1.49972 0 00-.3075-1.8825l-1.4175-1.2975zm-1.3425 5.43l-2.5725-.87a6.64417 6.64417 0 01-2.0325 1.1775l-.5325 2.6925h-3.54l-.53245-2.6625a7.01813 7.01813 0 01-2.025-1.1775l-2.58.84-1.77-3 2.04-1.8a6.67487 6.67487 0 010-2.3475l-2.04-1.85246 1.77-3 2.5725.87a6.64496 6.64496 0 012.0325-1.1775l.53245-2.6925h3.54l.5325 2.6625a7.01876 7.01876 0 012.025 1.1775l2.58-.84 1.77 3-2.04 1.79996a6.67393 6.67393 0 010 2.3475l2.04 1.8525-1.77 3z"/><path d="M12 16.5c-.89 0-1.76-.2639-2.50006-.7584a4.50043 4.50043 0 01-1.6574-2.0195 4.50008 4.50008 0 01.97548-4.90408 4.5001 4.5001 0 014.90408-.97548 4.50043 4.50043 0 012.0195 1.6574A4.49986 4.49986 0 0116.5 12a4.4559 4.4559 0 01-.3303 1.7292 4.45426 4.45426 0 01-.9743 1.4662 4.45426 4.45426 0 01-1.4662.9743A4.4559 4.4559 0 0112 16.5zM12 9a2.93288 2.93288 0 00-1.1589.20954 2.93344 2.93344 0 00-.98298.64858 2.93344 2.93344 0 00-.64858.98298A2.93288 2.93288 0 009 12a2.93288 2.93288 0 00.20954 1.1589c.1475.3681.36814.7026.64858.983a2.9341 2.9341 0 00.98298.6486A2.9332 2.9332 0 0012 15a2.9332 2.9332 0 001.1589-.2095c.3681-.1475.7026-.3682.983-.6486.2804-.2804.5011-.6149.6486-.983A2.9332 2.9332 0 0015 12a2.9332 2.9332 0 00-.2095-1.1589 2.9341 2.9341 0 00-.6486-.98298 2.93272 2.93272 0 00-.983-.64858A2.93288 2.93288 0 0012 9z" /></svg>