<svg width="130" height="144" viewBox="0 0 130 144" fill="none" xmlns="http://www.w3.org/2000/svg">
<rect x="1" y="76.5" width="59.3387" height="67" rx="15.5" fill="white"/>
<path d="M32.676 108.06C34.884 108.42 36.576 109.248 37.752 110.544C38.928 111.816 39.516 113.4 39.516 115.296C39.516 116.76 39.132 118.116 38.364 119.364C37.596 120.588 36.42 121.572 34.836 122.316C33.276 123.06 31.356 123.432 29.076 123.432C27.3 123.432 25.548 123.204 23.82 122.748C22.116 122.268 20.664 121.596 19.464 120.732L21.732 116.268C22.692 116.988 23.796 117.552 25.044 117.96C26.316 118.344 27.612 118.536 28.932 118.536C30.396 118.536 31.548 118.26 32.388 117.708C33.228 117.132 33.648 116.328 33.648 115.296C33.648 113.232 32.076 112.2 28.932 112.2H26.268V108.348L31.452 102.48H20.724V97.8H38.364V101.58L32.676 108.06Z" fill="black"/>
<rect x="1" y="76.5" width="59.3387" height="67" rx="15.5" stroke="#767676"/>
<rect x="1" y="0.5" width="59.3387" height="67" rx="15.5" fill="white"/>
<path d="M34.624 21.8V47H28.792V26.48H23.752V21.8H34.624Z" fill="black"/>
<rect x="1" y="0.5" width="59.3387" height="67" rx="15.5" stroke="#767676"/>
<rect x="69.6613" y="0.5" width="59.3387" height="67" rx="15.5" fill="white"/>
<path d="M108.393 42.248V47H89.3493V43.22L99.0693 34.04C100.101 33.056 100.797 32.216 101.157 31.52C101.517 30.8 101.697 30.092 101.697 29.396C101.697 28.388 101.349 27.62 100.653 27.092C99.9813 26.54 98.9853 26.264 97.6653 26.264C96.5613 26.264 95.5653 26.48 94.6773 26.912C93.7893 27.32 93.0453 27.944 92.4453 28.784L88.1973 26.048C89.1813 24.584 90.5373 23.444 92.2653 22.628C93.9933 21.788 95.9733 21.368 98.2053 21.368C100.077 21.368 101.709 21.68 103.101 22.304C104.517 22.904 105.609 23.768 106.377 24.896C107.169 26 107.565 27.308 107.565 28.82C107.565 30.188 107.277 31.472 106.701 32.672C106.125 33.872 105.009 35.24 103.353 36.776L97.5573 42.248H108.393Z" fill="black"/>
<rect x="69.6613" y="0.5" width="59.3387" height="67" rx="15.5" stroke="#767676"/>
<rect x="69.6613" y="76.5" width="59.3387" height="67" rx="15.5" fill="white"/>
<path d="M111.125 117.375H107.021V122.667H101.333V117.375H87.7611V113.451L99.6411 97.4667H105.761L94.7451 112.623H101.513V107.907H107.021V112.623H111.125V117.375Z" fill="black"/>
<rect x="69.6613" y="76.5" width="59.3387" height="67" rx="15.5" stroke="#767676"/>
</svg>
