<svg width="193" height="41" viewBox="0 0 193 41" fill="none" xmlns="http://www.w3.org/2000/svg">
<path d="M3.81 30.18C3.27 30.18 2.82 30.03 2.46 29.73C2.12 29.41 1.95 28.96 1.95 28.38V10.47C1.95 9.89 2.12 9.45 2.46 9.15C2.82 8.85 3.27 8.7 3.81 8.7C4.35 8.7 4.8 8.85 5.16 9.15C5.52 9.45 5.7 9.89 5.7 10.47V28.38C5.7 28.96 5.52 29.41 5.16 29.73C4.8 30.03 4.35 30.18 3.81 30.18ZM21.1772 25.98C21.5172 25.98 21.7872 26.11 21.9872 26.37C22.2072 26.63 22.3172 26.98 22.3172 27.42C22.3172 28.04 21.9472 28.56 21.2072 28.98C20.5272 29.36 19.7572 29.67 18.8972 29.91C18.0372 30.13 17.2172 30.24 16.4372 30.24C14.0772 30.24 12.2072 29.56 10.8272 28.2C9.44719 26.84 8.75719 24.98 8.75719 22.62C8.75719 21.12 9.05719 19.79 9.65719 18.63C10.2572 17.47 11.0972 16.57 12.1772 15.93C13.2772 15.29 14.5172 14.97 15.8972 14.97C17.2172 14.97 18.3672 15.26 19.3472 15.84C20.3272 16.42 21.0872 17.24 21.6272 18.3C22.1672 19.36 22.4372 20.61 22.4372 22.05C22.4372 22.91 22.0572 23.34 21.2972 23.34H12.4472C12.5672 24.72 12.9572 25.74 13.6172 26.4C14.2772 27.04 15.2372 27.36 16.4972 27.36C17.1372 27.36 17.6972 27.28 18.1772 27.12C18.6772 26.96 19.2372 26.74 19.8572 26.46C20.4572 26.14 20.8972 25.98 21.1772 25.98ZM15.9872 17.61C14.9672 17.61 14.1472 17.93 13.5272 18.57C12.9272 19.21 12.5672 20.13 12.4472 21.33H19.2272C19.1872 20.11 18.8872 19.19 18.3272 18.57C17.7672 17.93 16.9872 17.61 15.9872 17.61ZM31.8647 14.97C33.9047 14.97 35.4147 15.48 36.3947 16.5C37.3947 17.5 37.8947 19.03 37.8947 21.09V28.41C37.8947 28.95 37.7347 29.38 37.4147 29.7C37.0947 30 36.6547 30.15 36.0947 30.15C35.5747 30.15 35.1447 29.99 34.8047 29.67C34.4847 29.35 34.3247 28.93 34.3247 28.41V27.75C33.9847 28.53 33.4447 29.14 32.7047 29.58C31.9847 30.02 31.1447 30.24 30.1847 30.24C29.2047 30.24 28.3147 30.04 27.5147 29.64C26.7147 29.24 26.0847 28.69 25.6247 27.99C25.1647 27.29 24.9347 26.51 24.9347 25.65C24.9347 24.57 25.2047 23.72 25.7447 23.1C26.3047 22.48 27.2047 22.03 28.4447 21.75C29.6847 21.47 31.3947 21.33 33.5747 21.33H34.3247V20.64C34.3247 19.66 34.1147 18.95 33.6947 18.51C33.2747 18.05 32.5947 17.82 31.6547 17.82C31.0747 17.82 30.4847 17.91 29.8847 18.09C29.2847 18.25 28.5747 18.49 27.7547 18.81C27.2347 19.07 26.8547 19.2 26.6147 19.2C26.2547 19.2 25.9547 19.07 25.7147 18.81C25.4947 18.55 25.3847 18.21 25.3847 17.79C25.3847 17.45 25.4647 17.16 25.6247 16.92C25.8047 16.66 26.0947 16.42 26.4947 16.2C27.1947 15.82 28.0247 15.52 28.9847 15.3C29.9647 15.08 30.9247 14.97 31.8647 14.97ZM30.9347 27.54C31.9347 27.54 32.7447 27.21 33.3647 26.55C34.0047 25.87 34.3247 25 34.3247 23.94V23.31H33.7847C32.4447 23.31 31.4047 23.37 30.6647 23.49C29.9247 23.61 29.3947 23.82 29.0747 24.12C28.7547 24.42 28.5947 24.83 28.5947 25.35C28.5947 25.99 28.8147 26.52 29.2547 26.94C29.7147 27.34 30.2747 27.54 30.9347 27.54ZM49.8959 15.03C50.4159 14.99 50.8259 15.1 51.1259 15.36C51.4259 15.62 51.5759 16.01 51.5759 16.53C51.5759 17.07 51.4459 17.47 51.1859 17.73C50.9259 17.99 50.4559 18.16 49.7759 18.24L48.8759 18.33C47.6959 18.45 46.8259 18.85 46.2659 19.53C45.7259 20.21 45.4559 21.06 45.4559 22.08V28.38C45.4559 28.96 45.2759 29.41 44.9159 29.73C44.5559 30.03 44.1059 30.18 43.5659 30.18C43.0259 30.18 42.5759 30.03 42.2159 29.73C41.8759 29.41 41.7059 28.96 41.7059 28.38V16.77C41.7059 16.21 41.8759 15.78 42.2159 15.48C42.5759 15.18 43.0159 15.03 43.5359 15.03C44.0559 15.03 44.4759 15.18 44.7959 15.48C45.1159 15.76 45.2759 16.17 45.2759 16.71V17.91C45.6559 17.03 46.2159 16.35 46.9559 15.87C47.7159 15.39 48.5559 15.12 49.4759 15.06L49.8959 15.03ZM61.7102 14.97C63.4702 14.97 64.7802 15.47 65.6402 16.47C66.5002 17.47 66.9302 18.98 66.9302 21V28.38C66.9302 28.94 66.7602 29.38 66.4202 29.7C66.1002 30.02 65.6502 30.18 65.0702 30.18C64.4902 30.18 64.0302 30.02 63.6902 29.7C63.3502 29.38 63.1802 28.94 63.1802 28.38V21.21C63.1802 20.07 62.9602 19.24 62.5202 18.72C62.1002 18.2 61.4302 17.94 60.5102 17.94C59.4302 17.94 58.5602 18.28 57.9002 18.96C57.2602 19.64 56.9402 20.55 56.9402 21.69V28.38C56.9402 28.94 56.7702 29.38 56.4302 29.7C56.0902 30.02 55.6302 30.18 55.0502 30.18C54.4702 30.18 54.0102 30.02 53.6702 29.7C53.3502 29.38 53.1902 28.94 53.1902 28.38V16.77C53.1902 16.25 53.3602 15.83 53.7002 15.51C54.0402 15.19 54.5002 15.03 55.0802 15.03C55.6002 15.03 56.0202 15.19 56.3402 15.51C56.6802 15.81 56.8502 16.21 56.8502 16.71V17.52C57.3502 16.7 58.0202 16.07 58.8602 15.63C59.7002 15.19 60.6502 14.97 61.7102 14.97ZM72.5991 30.18C72.0591 30.18 71.6091 30.03 71.2491 29.73C70.9091 29.41 70.7391 28.96 70.7391 28.38V16.8C70.7391 16.22 70.9091 15.78 71.2491 15.48C71.6091 15.18 72.0591 15.03 72.5991 15.03C73.1391 15.03 73.5891 15.18 73.9491 15.48C74.3091 15.78 74.4891 16.22 74.4891 16.8V28.38C74.4891 28.96 74.3091 29.41 73.9491 29.73C73.5891 30.03 73.1391 30.18 72.5991 30.18ZM72.5991 12.36C71.9191 12.36 71.3791 12.18 70.9791 11.82C70.5791 11.44 70.3791 10.95 70.3791 10.35C70.3791 9.75 70.5791 9.27 70.9791 8.91C71.3791 8.55 71.9191 8.37 72.5991 8.37C73.2591 8.37 73.7891 8.55 74.1891 8.91C74.6091 9.27 74.8191 9.75 74.8191 10.35C74.8191 10.95 74.6191 11.44 74.2191 11.82C73.8191 12.18 73.2791 12.36 72.5991 12.36ZM86.8763 14.97C88.6363 14.97 89.9463 15.47 90.8063 16.47C91.6663 17.47 92.0963 18.98 92.0963 21V28.38C92.0963 28.94 91.9263 29.38 91.5863 29.7C91.2663 30.02 90.8163 30.18 90.2363 30.18C89.6563 30.18 89.1963 30.02 88.8563 29.7C88.5163 29.38 88.3463 28.94 88.3463 28.38V21.21C88.3463 20.07 88.1263 19.24 87.6863 18.72C87.2663 18.2 86.5963 17.94 85.6763 17.94C84.5963 17.94 83.7263 18.28 83.0663 18.96C82.4263 19.64 82.1063 20.55 82.1063 21.69V28.38C82.1063 28.94 81.9363 29.38 81.5963 29.7C81.2563 30.02 80.7963 30.18 80.2163 30.18C79.6363 30.18 79.1763 30.02 78.8363 29.7C78.5163 29.38 78.3563 28.94 78.3563 28.38V16.77C78.3563 16.25 78.5263 15.83 78.8663 15.51C79.2063 15.19 79.6663 15.03 80.2463 15.03C80.7663 15.03 81.1863 15.19 81.5063 15.51C81.8463 15.81 82.0163 16.21 82.0163 16.71V17.52C82.5163 16.7 83.1863 16.07 84.0263 15.63C84.8663 15.19 85.8163 14.97 86.8763 14.97ZM108.325 15.03C108.885 15.03 109.335 15.19 109.675 15.51C110.015 15.83 110.185 16.26 110.185 16.8V28.65C110.185 30.95 109.545 32.69 108.265 33.87C106.985 35.05 105.095 35.64 102.595 35.64C100.415 35.64 98.5951 35.23 97.1351 34.41C96.3951 33.97 96.0251 33.44 96.0251 32.82C96.0251 32.38 96.1251 32.03 96.3251 31.77C96.5451 31.51 96.8251 31.38 97.1651 31.38C97.3451 31.38 97.5651 31.42 97.8251 31.5C98.0851 31.6 98.3551 31.71 98.6351 31.83C99.3551 32.13 99.9951 32.36 100.555 32.52C101.135 32.68 101.795 32.76 102.535 32.76C105.155 32.76 106.465 31.48 106.465 28.92V27C106.025 27.82 105.385 28.46 104.545 28.92C103.705 29.36 102.745 29.58 101.665 29.58C100.385 29.58 99.2451 29.28 98.2451 28.68C97.2651 28.06 96.4951 27.2 95.9351 26.1C95.3751 25 95.0951 23.73 95.0951 22.29C95.0951 20.85 95.3651 19.58 95.9051 18.48C96.4651 17.36 97.2451 16.5 98.2451 15.9C99.2451 15.28 100.385 14.97 101.665 14.97C102.745 14.97 103.705 15.2 104.545 15.66C105.385 16.1 106.025 16.73 106.465 17.55V16.77C106.465 16.25 106.635 15.83 106.975 15.51C107.315 15.19 107.765 15.03 108.325 15.03ZM102.655 26.67C103.855 26.67 104.785 26.28 105.445 25.5C106.125 24.72 106.465 23.65 106.465 22.29C106.465 20.91 106.125 19.83 105.445 19.05C104.785 18.27 103.855 17.88 102.655 17.88C101.475 17.88 100.545 18.27 99.8651 19.05C99.1851 19.83 98.8451 20.91 98.8451 22.29C98.8451 23.65 99.1851 24.72 99.8651 25.5C100.545 26.28 101.475 26.67 102.655 26.67Z" fill="#0400AF"/>
<path d="M124.419 23.76C123.799 23.76 123.199 23.65 122.619 23.43C122.059 23.21 121.379 22.9 120.579 22.5C119.899 22.16 119.389 21.92 119.049 21.78C118.709 21.64 118.379 21.57 118.059 21.57C117.439 21.57 116.899 21.83 116.439 22.35C116.059 22.79 115.669 23.01 115.269 23.01C115.049 23.01 114.839 22.94 114.639 22.8C114.299 22.58 114.129 22.26 114.129 21.84C114.129 21.6 114.189 21.38 114.309 21.18C114.709 20.5 115.209 19.98 115.809 19.62C116.429 19.26 117.099 19.08 117.819 19.08C118.439 19.08 119.029 19.19 119.589 19.41C120.169 19.63 120.859 19.94 121.659 20.34C122.279 20.64 122.769 20.87 123.129 21.03C123.509 21.17 123.859 21.24 124.179 21.24C124.839 21.24 125.379 20.98 125.799 20.46C126.179 20.04 126.559 19.83 126.939 19.83C127.159 19.83 127.369 19.9 127.569 20.04C127.749 20.14 127.889 20.28 127.989 20.46C128.089 20.64 128.139 20.83 128.139 21.03C128.139 21.27 128.069 21.49 127.929 21.69C127.529 22.35 127.019 22.86 126.399 23.22C125.799 23.58 125.139 23.76 124.419 23.76ZM140.487 14.97C141.747 14.97 142.867 15.29 143.847 15.93C144.847 16.57 145.617 17.48 146.157 18.66C146.717 19.82 146.997 21.16 146.997 22.68C146.997 24.2 146.717 25.53 146.157 26.67C145.617 27.81 144.857 28.69 143.877 29.31C142.897 29.93 141.767 30.24 140.487 30.24C139.447 30.24 138.517 30.02 137.697 29.58C136.877 29.14 136.247 28.53 135.807 27.75V33.87C135.807 34.39 135.637 34.8 135.297 35.1C134.957 35.4 134.507 35.55 133.947 35.55C133.387 35.55 132.927 35.39 132.567 35.07C132.227 34.75 132.057 34.33 132.057 33.81V16.8C132.057 16.26 132.217 15.83 132.537 15.51C132.877 15.19 133.327 15.03 133.887 15.03C134.447 15.03 134.897 15.19 135.237 15.51C135.577 15.83 135.747 16.26 135.747 16.8V17.55C136.187 16.73 136.817 16.1 137.637 15.66C138.477 15.2 139.427 14.97 140.487 14.97ZM139.497 27.33C140.677 27.33 141.597 26.93 142.257 26.13C142.917 25.31 143.247 24.16 143.247 22.68C143.247 21.16 142.917 19.98 142.257 19.14C141.597 18.3 140.677 17.88 139.497 17.88C138.297 17.88 137.367 18.29 136.707 19.11C136.067 19.93 135.747 21.1 135.747 22.62C135.747 24.12 136.067 25.28 136.707 26.1C137.367 26.92 138.297 27.33 139.497 27.33ZM156.435 14.97C158.475 14.97 159.985 15.48 160.965 16.5C161.965 17.5 162.465 19.03 162.465 21.09V28.41C162.465 28.95 162.305 29.38 161.985 29.7C161.665 30 161.225 30.15 160.665 30.15C160.145 30.15 159.715 29.99 159.375 29.67C159.055 29.35 158.895 28.93 158.895 28.41V27.75C158.555 28.53 158.015 29.14 157.275 29.58C156.555 30.02 155.715 30.24 154.755 30.24C153.775 30.24 152.885 30.04 152.085 29.64C151.285 29.24 150.655 28.69 150.195 27.99C149.735 27.29 149.505 26.51 149.505 25.65C149.505 24.57 149.775 23.72 150.315 23.1C150.875 22.48 151.775 22.03 153.015 21.75C154.255 21.47 155.965 21.33 158.145 21.33H158.895V20.64C158.895 19.66 158.685 18.95 158.265 18.51C157.845 18.05 157.165 17.82 156.225 17.82C155.645 17.82 155.055 17.91 154.455 18.09C153.855 18.25 153.145 18.49 152.325 18.81C151.805 19.07 151.425 19.2 151.185 19.2C150.825 19.2 150.525 19.07 150.285 18.81C150.065 18.55 149.955 18.21 149.955 17.79C149.955 17.45 150.035 17.16 150.195 16.92C150.375 16.66 150.665 16.42 151.065 16.2C151.765 15.82 152.595 15.52 153.555 15.3C154.535 15.08 155.495 14.97 156.435 14.97ZM155.505 27.54C156.505 27.54 157.315 27.21 157.935 26.55C158.575 25.87 158.895 25 158.895 23.94V23.31H158.355C157.015 23.31 155.975 23.37 155.235 23.49C154.495 23.61 153.965 23.82 153.645 24.12C153.325 24.42 153.165 24.83 153.165 25.35C153.165 25.99 153.385 26.52 153.825 26.94C154.285 27.34 154.845 27.54 155.505 27.54ZM173.896 27.39C174.896 27.45 175.396 27.9 175.396 28.74C175.396 29.22 175.196 29.59 174.796 29.85C174.416 30.09 173.866 30.19 173.146 30.15L172.336 30.09C168.976 29.85 167.296 28.05 167.296 24.69V18.15H165.796C165.256 18.15 164.836 18.03 164.536 17.79C164.256 17.55 164.116 17.2 164.116 16.74C164.116 16.28 164.256 15.93 164.536 15.69C164.836 15.45 165.256 15.33 165.796 15.33H167.296V12.57C167.296 12.03 167.466 11.6 167.806 11.28C168.146 10.96 168.606 10.8 169.186 10.8C169.746 10.8 170.196 10.96 170.536 11.28C170.876 11.6 171.046 12.03 171.046 12.57V15.33H173.596C174.136 15.33 174.546 15.45 174.826 15.69C175.126 15.93 175.276 16.28 175.276 16.74C175.276 17.2 175.126 17.55 174.826 17.79C174.546 18.03 174.136 18.15 173.596 18.15H171.046V24.96C171.046 26.44 171.726 27.23 173.086 27.33L173.896 27.39ZM185.93 14.97C189.37 14.97 191.09 16.98 191.09 21V28.38C191.09 28.94 190.92 29.38 190.58 29.7C190.26 30.02 189.81 30.18 189.23 30.18C188.65 30.18 188.19 30.02 187.85 29.7C187.51 29.38 187.34 28.94 187.34 28.38V21C187.34 19.94 187.12 19.17 186.68 18.69C186.26 18.19 185.59 17.94 184.67 17.94C183.59 17.94 182.72 18.28 182.06 18.96C181.42 19.64 181.1 20.55 181.1 21.69V28.38C181.1 28.94 180.93 29.38 180.59 29.7C180.25 30.02 179.79 30.18 179.21 30.18C178.63 30.18 178.17 30.02 177.83 29.7C177.51 29.38 177.35 28.94 177.35 28.38V10.44C177.35 9.92 177.52 9.5 177.86 9.18C178.22 8.86 178.68 8.7 179.24 8.7C179.8 8.7 180.25 8.85 180.59 9.15C180.93 9.45 181.1 9.86 181.1 10.38V17.37C181.6 16.59 182.26 16 183.08 15.6C183.92 15.18 184.87 14.97 185.93 14.97Z" fill="#767676"/>
</svg>
